Format : Flash Video
File size : 187 MiB
Duration : 12mn 21s
Overall bit rate : 2 119 Kbps
Tagged date : UTC 2012-03-06 15:18:38
Tagging application : flvtool++ (Facebook, Motion project, dweatherford)
totalframes : 22213.000

Video
Format : AVC
Format/Info : Advanced Video Codec
Format profile : High@L3.1
Format settings, CABAC : Yes
Format settings, ReFrames : 4 frames
Codec ID : 7
Duration : 12mn 21s
Bit rate : 2 048 Kbps
Width : 960 pixels
Height : 540 pixels
Display aspect ratio : 16:9
Frame rate mode : Constant
Frame rate : 29.970 fps
Color space : YUV
Chroma subsampling : 4:2:0
Bit depth : 8 bits
Scan type : Progressive
Bits/(Pixel*Frame) : 0.132
Stream size : 181 MiB (97%)

Audio
Format : AAC
Format/Info : Advanced Audio Codec
Format profile : LC
Codec ID : 10
Duration : 12mn 21s
Bit rate : 59.1 Kbps
Channel(s) : 2 channels
Channel positions : Front: L R
Sampling rate : 44.1 KHz
Compression mode : Lossy
Delay relative to video : 66ms
Stream size : 5.22 MiB (3%)